<?xml version="1.0" encoding="UTF-8"?>
<svg xmlns="http://www.w3.org/2000/svg" xmlns:xlink="http://www.w3.org/1999/xlink" version="1.1" width="3840px" height="2160px" style="shape-rendering:geometricPrecision; text-rendering:geometricPrecision; image-rendering:optimizeQuality; fill-rule:evenodd; clip-rule:evenodd">
  <g>
    <path style="opacity:1" fill="#000000" d="M 3535.5,808.5 C 3565.72,807.135 3595.72,808.969 3625.5,814C 3649.4,819.453 3671.06,829.453 3690.5,844C 3702.8,855.093 3712.3,868.26 3719,883.5C 3726.66,913.731 3729.16,944.398 3726.5,975.5C 3683.17,975.5 3639.83,975.5 3596.5,975.5C 3596.67,959.497 3596.5,943.497 3596,927.5C 3593.83,919.657 3590,912.824 3584.5,907C 3578.26,904.315 3571.76,902.481 3565,901.5C 3558.03,902.38 3551.2,903.88 3544.5,906C 3537.17,910.14 3532.34,916.307 3530,924.5C 3529.33,1018.17 3529.33,1111.83 3530,1205.5C 3535.5,1227.64 3549.67,1237.14 3572.5,1234C 3587.69,1229.48 3596.19,1219.31 3598,1203.5C 3598.5,1175.17 3598.67,1146.84 3598.5,1118.5C 3586.83,1118.5 3575.17,1118.5 3563.5,1118.5C 3563.5,1094.17 3563.5,1069.83 3563.5,1045.5C 3618.83,1045.5 3674.17,1045.5 3729.5,1045.5C 3729.67,1100.83 3729.5,1156.17 3729,1211.5C 3728.41,1232.05 3724.08,1251.72 3716,1270.5C 3702.95,1290.88 3685.12,1305.38 3662.5,1314C 3603.12,1335.56 3543.12,1337.23 3482.5,1319C 3469.37,1313.84 3456.7,1307.84 3444.5,1301C 3429.54,1290.04 3417.38,1276.54 3408,1260.5C 3402.51,1248.37 3398.85,1235.7 3397,1222.5C 3396.8,1127.66 3396.3,1032.83 3395.5,938C 3395.96,914.323 3401.79,892.156 3413,871.5C 3417.75,865.758 3422.08,859.758 3426,853.5C 3433.15,848.012 3439.99,842.179 3446.5,836C 3459.51,828.332 3473.17,821.999 3487.5,817C 3503.51,813.428 3519.51,810.595 3535.5,808.5 Z"></path>
  </g>
  <g>
    <path style="opacity:1" fill="#000000" d="M 295.5,811.5 C 317.872,811.277 340.205,812.111 362.5,814C 392.802,817.645 420.135,828.312 444.5,846C 459.333,858.514 469.499,874.014 475,892.5C 475.667,895.833 476.333,899.167 477,902.5C 477.474,927.836 477.974,953.169 478.5,978.5C 435.167,978.5 391.833,978.5 348.5,978.5C 348.667,962.497 348.5,946.497 348,930.5C 343.618,917.126 334.451,908.959 320.5,906C 293.149,902.673 277.815,914.673 274.5,942C 276.152,955.967 281.818,967.967 291.5,978C 298.891,983.723 306.557,989.056 314.5,994C 342.583,1008.39 370.916,1022.39 399.5,1036C 409.207,1042.19 419.207,1047.85 429.5,1053C 455.499,1071 472.999,1095.17 482,1125.5C 484.738,1135.31 486.072,1145.31 486,1155.5C 486.841,1181.52 486.508,1207.52 485,1233.5C 477.376,1265.95 459.21,1290.45 430.5,1307C 400.609,1323.28 368.609,1332.61 334.5,1335C 292.672,1338.82 252.005,1333.82 212.5,1320C 198.83,1313.84 186.164,1306.17 174.5,1297C 154.944,1279.07 142.777,1256.9 138,1230.5C 137.5,1206.84 137.333,1183.17 137.5,1159.5C 183.5,1159.5 229.5,1159.5 275.5,1159.5C 275.333,1175.84 275.5,1192.17 276,1208.5C 281.481,1230.52 295.648,1240.02 318.5,1237C 330.288,1235.87 338.788,1230.03 344,1219.5C 351.295,1204.82 351.295,1190.16 344,1175.5C 335.219,1159.72 322.385,1148.55 305.5,1142C 303.415,1140.96 301.748,1139.46 300.5,1137.5C 270.558,1122.2 240.891,1106.36 211.5,1090C 197.852,1080.88 185.352,1070.38 174,1058.5C 171.767,1053.93 168.767,1049.93 165,1046.5C 156.471,1030.24 151.138,1012.91 149,994.5C 148.333,970.167 148.333,945.833 149,921.5C 150.053,907.518 152.719,893.851 157,880.5C 162.678,870.486 169.511,861.32 177.5,853C 193.09,840.537 210.423,831.203 229.5,825C 251.048,817.591 273.048,813.091 295.5,811.5 Z"></path>
  </g>
  <g>
    <path style="opacity:1" fill="#000000" d="M 1975.5,811.5 C 1998.21,811.26 2020.87,812.094 2043.5,814C 2070.05,817.515 2094.71,826.181 2117.5,840C 2137.18,854.158 2150.34,872.992 2157,896.5C 2157.24,902.038 2157.74,907.538 2158.5,913C 2158.02,934.801 2158.02,956.634 2158.5,978.5C 2115.5,978.5 2072.5,978.5 2029.5,978.5C 2029.67,962.163 2029.5,945.83 2029,929.5C 2024.18,916.692 2015.02,908.858 2001.5,906C 1978.58,902.538 1963.41,911.705 1956,933.5C 1954.37,954.076 1961.87,970.576 1978.5,983C 1996.2,993.657 2014.2,1003.99 2032.5,1014C 2049.41,1021.12 2066.07,1028.79 2082.5,1037C 2094.53,1044.35 2106.53,1051.68 2118.5,1059C 2125.05,1065.85 2131.88,1072.35 2139,1078.5C 2141.19,1083.36 2144.19,1087.7 2148,1091.5C 2158.75,1111.08 2165.08,1132.08 2167,1154.5C 2167.67,1176.17 2167.67,1197.83 2167,1219.5C 2164.65,1246.5 2154.15,1269.66 2135.5,1289C 2127.5,1295 2119.5,1301 2111.5,1307C 2096.91,1314.95 2081.58,1321.29 2065.5,1326C 2023.58,1336.29 1981.25,1338.29 1938.5,1332C 1902.89,1327.28 1872.06,1312.78 1846,1288.5C 1841,1281.5 1836,1274.5 1831,1267.5C 1825,1255.5 1821,1242.84 1819,1229.5C 1818.5,1206.17 1818.33,1182.84 1818.5,1159.5C 1864.17,1159.5 1909.83,1159.5 1955.5,1159.5C 1955.33,1175.5 1955.5,1191.5 1956,1207.5C 1960.22,1227.38 1972.56,1237.38 1993,1237.5C 2011.34,1236.99 2023.34,1227.99 2029,1210.5C 2029.67,1201.83 2029.67,1193.17 2029,1184.5C 2026.23,1176.75 2022.23,1169.75 2017,1163.5C 2011.81,1157.65 2005.98,1152.48 1999.5,1148C 1961.6,1127.89 1923.93,1107.55 1886.5,1087C 1879.57,1080.53 1872.24,1074.53 1864.5,1069C 1859,1062.83 1853.5,1056.67 1848,1050.5C 1838.65,1035.46 1832.65,1019.12 1830,1001.5C 1828.4,974.865 1828.06,948.198 1829,921.5C 1831.31,881.017 1850.14,851.183 1885.5,832C 1914.3,819.343 1944.3,812.51 1975.5,811.5 Z"></path>
  </g>
  <g>
    <path style="opacity:1" fill="#000000" d="M 1449.5,825.5 C 1519.26,826.65 1589.09,826.65 1659,825.5C 1660.26,825.759 1661.26,826.426 1662,827.5C 1666.85,991.502 1671.69,1155.5 1676.5,1319.5C 1633.5,1319.5 1590.5,1319.5 1547.5,1319.5C 1546.84,1196.16 1545.84,1072.83 1544.5,949.5C 1541.55,949.223 1538.72,949.556 1536,950.5C 1514,1073.16 1492,1195.83 1470,1318.5C 1447.57,1319.16 1425.07,1319.5 1402.5,1319.5C 1379.78,1319.49 1357.28,1318.83 1335,1317.5C 1312.64,1194.85 1290.47,1072.19 1268.5,949.5C 1265.17,949.5 1261.83,949.5 1258.5,949.5C 1257.76,1072.83 1257.42,1196.17 1257.5,1319.5C 1214.83,1319.67 1172.17,1319.5 1129.5,1319C 1132.64,1155.64 1136.31,992.136 1140.5,828.5C 1212.17,828.5 1283.83,828.5 1355.5,828.5C 1369.45,917.454 1383.11,1006.45 1396.5,1095.5C 1399.57,1095.82 1402.57,1095.48 1405.5,1094.5C 1406.19,1092.56 1406.69,1090.56 1407,1088.5C 1420.96,1000.76 1435.12,913.09 1449.5,825.5 Z"></path>
  </g>
  <g>
    <path style="opacity:1" fill="#000000" d="M 2318.5,826.5 C 2365.17,826.5 2411.83,826.5 2458.5,826.5C 2458.33,950.834 2458.5,1075.17 2459,1199.5C 2460.77,1223.44 2473.61,1235.44 2497.5,1235.5C 2513.84,1236.92 2524.67,1229.92 2530,1214.5C 2530.67,1211.83 2531.33,1209.17 2532,1206.5C 2532.5,1079.83 2532.67,953.167 2532.5,826.5C 2578.5,826.5 2624.5,826.5 2670.5,826.5C 2670.67,955.834 2670.5,1085.17 2670,1214.5C 2667.61,1239.04 2658.61,1260.71 2643,1279.5C 2633.05,1290.12 2621.88,1299.29 2609.5,1307C 2594.04,1314.71 2578.04,1321.04 2561.5,1326C 2549.2,1328.13 2536.86,1330.13 2524.5,1332C 2483.57,1335.93 2443.57,1331.6 2404.5,1319C 2374.74,1308.55 2351.57,1290.05 2335,1263.5C 2325.87,1248.45 2320.54,1232.12 2319,1214.5C 2318.5,1085.17 2318.33,955.834 2318.5,826.5 Z"></path>
  </g>
  <g>
    <path style="opacity:1" fill="#000000" d="M 2843.5,826.5 C 2896.17,826.167 2948.84,826.5 3001.5,827.5C 3044.41,926.313 3087.57,1024.98 3131,1123.5C 3132.7,1124.41 3134.53,1124.74 3136.5,1124.5C 3133.07,1025.19 3130.07,925.852 3127.5,826.5C 3170.83,826.5 3214.17,826.5 3257.5,826.5C 3257.5,990.833 3257.5,1155.17 3257.5,1319.5C 3206.5,1319.83 3155.5,1319.5 3104.5,1318.5C 3081.77,1268.69 3059.27,1218.69 3037,1168.5C 3030.56,1156.95 3025.22,1144.95 3021,1132.5C 3014.44,1119.38 3008.44,1106.05 3003,1092.5C 2991.3,1067.77 2979.63,1043.11 2968,1018.5C 2967.26,1019.64 2966.43,1019.64 2965.5,1018.5C 2965.17,1021 2964.83,1023.5 2964.5,1026C 2966.48,1123.84 2968.82,1221.67 2971.5,1319.5C 2928.83,1319.5 2886.17,1319.5 2843.5,1319.5C 2843.5,1155.17 2843.5,990.833 2843.5,826.5 Z"></path>
  </g>
  <g>
    <path style="opacity:1" fill="#000000" d="M 692.5,828.5 C 764.738,828.169 836.904,828.502 909,829.5C 937.602,992.445 965.768,1155.44 993.5,1318.5C 947.5,1318.5 901.5,1318.5 855.5,1318.5C 854.247,1309.21 853.414,1299.88 853,1290.5C 837.265,1173.19 821.765,1055.85 806.5,938.5C 802.833,938.5 799.167,938.5 795.5,938.5C 778.741,1065.15 762.074,1191.82 745.5,1318.5C 699.833,1318.5 654.167,1318.5 608.5,1318.5C 610.991,1303.89 613.157,1289.22 615,1274.5C 640.532,1125.72 666.365,977.056 692.5,828.5 Z"></path>
  </g>
</svg>
